<svg width="116" height="102" viewBox="0 0 116 102" fill="none" xmlns="http://www.w3.org/2000/svg">
<g id="Vector 2573">
<path d="M35.5057 3.9752C23.7551 -0.938854 10.4725 3.52852 4.82531 15.015C1.2165 22.3553 0.903217 28.8154 4.82531 35.9907C10.7831 46.8903 24.0273 48.3105 35.5057 43.7186C42.9594 40.7367 48.132 37.1466 50.2981 29.3668C53.3804 18.2961 46.0459 8.38302 35.5057 3.9752Z" fill="#009379"/>
<path d="M94.1269 26.0547C86.4676 25.6526 80.6569 27.6067 76.0473 33.7827C70.518 41.1911 70.251 50.32 76.0473 57.5182C83.1917 66.3905 96.2106 64.6316 105.084 57.5182C110.925 52.8361 114.828 47.8619 113.85 40.4066C112.605 30.9164 103.615 26.5529 94.1269 26.0547Z" fill="#009379"/>
<path d="M60.7071 69.662C50.8813 65.9789 39.3899 60.6871 33.8618 69.662C28.2604 78.7558 37.4546 88.2775 46.4626 93.9497C55.8973 99.8904 69.8247 103.898 74.9516 93.9497C77.6136 88.7842 77.5059 84.2663 74.9516 79.0459C72.0128 73.0396 66.9364 71.997 60.7071 69.662Z" fill="#009379"/>
<path d="M35.5057 3.9752C23.7551 -0.938854 10.4725 3.52852 4.82531 15.015C1.2165 22.3553 0.903217 28.8154 4.82531 35.9907C10.7831 46.8903 24.0273 48.3105 35.5057 43.7186C42.9594 40.7367 48.132 37.1466 50.2981 29.3668C53.3804 18.2961 46.0459 8.38302 35.5057 3.9752Z" stroke="#009379" stroke-width="4"/>
<path d="M94.1269 26.0547C86.4676 25.6526 80.6569 27.6067 76.0473 33.7827C70.518 41.1911 70.251 50.32 76.0473 57.5182C83.1917 66.3905 96.2106 64.6316 105.084 57.5182C110.925 52.8361 114.828 47.8619 113.85 40.4066C112.605 30.9164 103.615 26.5529 94.1269 26.0547Z" stroke="#009379" stroke-width="4"/>
<path d="M60.7071 69.662C50.8813 65.9789 39.3899 60.6871 33.8618 69.662C28.2604 78.7558 37.4546 88.2775 46.4626 93.9497C55.8973 99.8904 69.8247 103.898 74.9516 93.9497C77.6136 88.7842 77.5059 84.2663 74.9516 79.0459C72.0128 73.0396 66.9364 71.997 60.7071 69.662Z" stroke="#009379" stroke-width="4"/>
</g>
</svg>
